<?xml version="1.0" encoding="UTF-8" standalone="no"?>
<!-- Generator: Adobe Illustrator 23.0.4, SVG Export Plug-In . SVG Version: 6.00 Build 0)  -->

<svg
   version="1.1"
   id="Layer_1"
   x="0px"
   y="0px"
   viewBox="0 0 1000 150"
   xml:space="preserve"
   sodipodi:docname="NEOM-01-1.svg"
   width="1000"
   height="150"
   inkscape:version="1.3.2 (091e20ef0f, 2023-11-25)"
   xmlns:inkscape="http://www.inkscape.org/namespaces/inkscape"
   xmlns:sodipodi="http://sodipodi.sourceforge.net/DTD/sodipodi-0.dtd"
   xmlns="http://www.w3.org/2000/svg"
   xmlns:svg="http://www.w3.org/2000/svg"><sodipodi:namedview
   id="namedview313"
   pagecolor="#ffffff"
   bordercolor="#000000"
   borderopacity="0.25"
   inkscape:showpageshadow="2"
   inkscape:pageopacity="0.0"
   inkscape:pagecheckerboard="0"
   inkscape:deskcolor="#d1d1d1"
   inkscape:zoom="0.336375"
   inkscape:cx="508.3612"
   inkscape:cy="273.50427"
   inkscape:window-width="1366"
   inkscape:window-height="699"
   inkscape:window-x="0"
   inkscape:window-y="0"
   inkscape:window-maximized="1"
   inkscape:current-layer="Layer_1" />
<style
   type="text/css"
   id="style1">
	.st0{fill:url(#SVGID_1_);}
	.st1{fill:#FCE4CA;}
	.st2{fill:url(#SVGID_2_);}
	.st3{fill:#54C3D6;}
	.st4{clip-path:url(#SVGID_14_);fill:url(#SVGID_15_);}
	.st5{clip-path:url(#SVGID_19_);fill:url(#SVGID_20_);}
	.st6{fill:url(#SVGID_23_);}
	.st7{clip-path:url(#SVGID_25_);fill:url(#SVGID_26_);}
	.st8{clip-path:url(#SVGID_28_);}
	.st9{clip-path:url(#SVGID_32_);}
	.st10{fill:url(#SVGID_35_);}
	.st11{fill:url(#SVGID_36_);}
	.st12{fill:#E81F26;}
	.st13{fill:url(#SVGID_37_);}
	.st14{fill:#05002C;}
	.st15{fill:#DD8725;}
	.st16{fill:#076893;}
	.st17{fill:#498CC9;}
	.st18{fill:#831618;}
	.st19{fill:#027344;}
	.st20{fill:#C98B27;}
	.st21{fill:#2F719C;}
	.st22{fill:#C57028;}
	.st23{fill:#D86726;}
	.st24{fill:#0070B8;}
	.st25{fill:#C02126;}
	.st26{fill:#F49123;}
	.st27{fill:#2E3587;}
	.st28{fill:#D38926;}
	.st29{fill:#1D1D4A;}
	.st30{fill:#3A7F3D;}
	.st31{fill:#D75427;}
	.st32{fill:#F8A324;}
	.st33{fill:#981C1F;}
	.st34{fill:url(#SVGID_38_);}
	.st35{fill:#CE8FBE;}
	.st36{fill:#935621;}
	.st37{fill:#3A632F;}
	.st38{fill:url(#SVGID_39_);}
	.st39{opacity:0.8;fill:url(#SVGID_42_);}
	.st40{fill:#AADEF6;}
	.st41{fill:url(#SVGID_43_);}
	.st42{fill:#2D2C6F;}
	.st43{fill-rule:evenodd;clip-rule:evenodd;fill:#0C0A09;}
	.st44{fill:#FFFFFF;filter:url(#Adobe_OpacityMaskFilter);}
	.st45{mask:url(#mask156_1_);}
</style>










<defs
   id="defs311">
	<filter
   id="Adobe_OpacityMaskFilter"
   filterUnits="userSpaceOnUse"
   x="681.40002"
   y="823.79999"
   width="216.89999"
   height="98.800003">
		<feColorMatrix
   type="matrix"
   values="1 0 0 0 0  0 1 0 0 0  0 0 1 0 0  0 0 0 1 0"
   id="feColorMatrix311" />
	</filter>
</defs>
<mask
   maskUnits="userSpaceOnUse"
   x="681.4"
   y="823.8"
   width="216.9"
   height="98.8"
   id="mask156_1_">
	<path
   class="st44"
   d="m 681.4,823.8 h 216.9 v 98.8 H 681.4 Z"
   id="path312" />
</mask>
<g
   id="g314"
   transform="translate(-0.9,-786.5)"><path
     class="st43"
     d="m 113.2,843.2 v 57.6 h -11.6 v -78.5 h 8.1 l 48.7,57.6 V 822.3 H 170 v 78.5 h -8 z"
     id="path303" /><path
     class="st43"
     d="m 254.3,853.2 v 10.7 h -26.7 v 26.4 h 36 V 901 H 216 v -78.5 h 46.4 V 833 h -34.8 v 20.2 z"
     id="path304" /><path
     class="st43"
     d="m 338.7,891.3 c 16.6,0 29,-12.7 29,-29.7 0,-16.9 -12.4,-29.7 -29,-29.7 -16.6,0 -29,12.8 -29,29.7 0,17 12.4,29.7 29,29.7 z m 0,-70.1 c 23,0 40.6,17.5 40.6,40.4 0,22.9 -17.6,40.4 -40.6,40.4 -23,0 -40.6,-17.5 -40.6,-40.4 0,-22.9 17.6,-40.4 40.6,-40.4 z"
     id="path305" /><path
     class="st43"
     d="m 459.9,884 h -8.1 L 428,848 v 52.8 h -11.6 v -78.5 h 8.1 l 31.3,47.9 31.3,-47.9 h 8.1 v 78.5 H 483.6 V 848 Z"
     id="path306" /><path
     class="st43"
     d="m 900.2,808.4 c 0,4.4 -3.7,7.9 -8.2,7.9 -4.5,0 -8.2,-3.6 -8.2,-7.9 0,-4.4 3.7,-8 8.2,-8 4.5,0.1 8.2,3.6 8.2,8 z"
     id="path307" /><path
     class="st43"
     d="m 822.9,914.4 c 0,4.4 -3.7,8 -8.2,8 -4.5,0 -8.2,-3.6 -8.2,-8 0,-4.4 3.7,-8 8.2,-8 4.5,0 8.2,3.6 8.2,8 z"
     id="path308" /><path
     class="st43"
     d="m 798.8,914.4 c 0,4.4 -3.7,8 -8.2,8 -4.5,0 -8.2,-3.6 -8.2,-8 0,-4.4 3.7,-8 8.2,-8 4.5,0 8.2,3.6 8.2,8 z"
     id="path309" /><path
     class="st43"
     d="m 628,893.9 h -2.3 c 0.6,0 1.2,0 1.9,0 1.6,0 3.2,-0.1 4.8,-0.3 -1.5,0.2 -3,0.3 -4.4,0.3 z"
     id="path310" /><path
     class="st43"
     d="m 627.5,884.2 c -14.1,0 -24.6,-10.8 -24.6,-25.2 0,-14.4 10.5,-25.3 24.6,-25.3 14.1,0 24.6,10.9 24.6,25.3 0,14.4 -10.5,25.2 -24.6,25.2 z m 0,-60.3 c -20,0 -35.3,15.2 -35.3,35.1 0,10.2 4,19.2 10.7,25.5 h -38.4 v 37.9 h 11.6 V 894 H 628 c 1.5,0 2.9,-0.1 4.3,-0.3 0.2,0 0.5,-0.1 0.7,-0.1 0.6,-0.1 1.1,-0.2 1.7,-0.3 1.1,-0.2 2.1,-0.5 3.2,-0.8 0.5,-0.2 1,-0.3 1.5,-0.5 0.4,-0.2 0.9,-0.3 1.3,-0.5 13.1,-5 22.1,-17.5 22.1,-32.6 -0.1,-19.9 -15.4,-35 -35.3,-35 z"
     id="path311" /><g
     class="st45"
     mask="url(#mask156_1_)"
     id="g313">
	<path
   class="st43"
   d="m 741.2,860.3 c -0.2,8.8 -2.3,16.9 -5.9,23.9 h -18.7 c -14.1,0 -24.6,-10.8 -24.6,-25.3 0,-14.4 10.6,-25.2 24.6,-25.2 14.1,0 24.6,10.9 24.6,25.2 0.1,0.5 0.1,0.9 0,1.4 z m 145.5,-31.2 v 55.3 h -63.8 v -55.3 h -11.6 v 55.3 H 747 c 0,-0.1 0.1,-0.1 0.1,-0.2 3.2,-7.7 4.9,-16.2 4.9,-25.3 0,-14.8 -8.4,-26.9 -21,-32.2 -4.3,-1.8 -9.2,-2.8 -14.3,-2.8 -19.9,0 -35.3,15.2 -35.3,35.1 0,10.1 4,19 10.4,25.3 3.3,3.2 7.2,5.7 11.6,7.4 0.4,0.2 0.9,0.3 1.3,0.5 0.5,0.2 1,0.3 1.5,0.5 1,0.3 2.1,0.6 3.2,0.8 0.6,0.1 1.1,0.2 1.7,0.3 0.2,0 0.5,0.1 0.7,0.1 1.4,0.2 2.8,0.3 4.3,0.3 h 12.6 c -9.8,11.4 -24.5,18.3 -41.6,18.3 V 923 c 23.7,0 43.6,-11.1 54.8,-28.8 h 156.3 v -64.9 h -11.5 z"
   id="path313" />
</g></g>
</svg>
